# Blender v2.76 (sub 0) OBJ File: 'scientist01.blend'
# www.blender.org
mtllib scientist01.mtl
o scientist01
v -1.000000 2.900001 0.100000
v -1.000000 1.500000 -0.300000
v -1.000000 1.500000 0.100000
v -1.000000 2.900001 -0.300000
v -0.700000 1.500000 0.100000
v -0.700000 1.000000 -0.500000
v -0.700000 1.000000 0.500000
v -0.700000 1.500000 -0.300000
v -0.700000 2.900001 0.100000
v -0.700000 2.900001 -0.300000
v -0.700000 3.300001 0.500001
v -0.700000 3.300001 -0.500000
v -0.500000 1.000000 0.200000
v -0.500000 0.000000 -0.200000
v -0.500000 -0.000000 0.200000
v -0.500000 1.000000 -0.200000
v -0.500000 4.100001 0.100001
v -0.500000 3.300001 -0.500000
v -0.500000 3.300001 0.100001
v -0.500000 3.300001 -0.800000
v -0.500000 4.100001 -0.800000
v 0.200000 1.000000 0.200000
v 0.200000 0.000000 -0.200000
v 0.200000 -0.000000 0.200000
v 0.200000 1.000000 -0.200000
v -0.200000 -0.000000 0.200000
v -0.200000 0.000000 -0.200000
v -0.200000 1.000000 0.200000
v -0.200000 1.000000 -0.200000
v 0.500000 -0.000000 0.200000
v 0.500000 0.000000 -0.200000
v 0.500000 1.000000 0.200000
v 0.500000 1.000000 -0.200000
v 0.500000 3.300001 0.100001
v 0.500000 3.300001 -0.500000
v 0.500000 4.100001 0.100001
v 0.500000 3.300001 -0.800000
v 0.500000 4.100001 -0.800000
v 0.700000 1.000000 0.500000
v 0.700000 1.000000 -0.500000
v 0.700000 1.500000 0.100000
v 0.700000 1.500000 -0.300000
v 0.700000 2.900001 0.100000
v 0.700000 2.900001 -0.300000
v 0.700000 3.300001 0.500001
v 0.700000 3.300001 -0.500000
v 1.000000 1.500000 0.100000
v 1.000000 1.500000 -0.300000
v 1.000000 2.900001 0.100000
v 1.000000 2.900001 -0.300000
v 0.700000 1.000000 0.500000
v -0.700000 3.300001 0.500001
v -0.700000 1.000000 0.500000
v 0.700000 3.300001 0.500001
v -0.200000 -0.000000 0.200000
v -0.500000 1.000000 0.200000
v -0.500000 -0.000000 0.200000
v -0.200000 1.000000 0.200000
v 0.500000 -0.000000 0.200000
v 0.200000 1.000000 0.200000
v 0.200000 -0.000000 0.200000
v 0.500000 1.000000 0.200000
v -0.700000 1.500000 0.100000
v -1.000000 2.900001 0.100000
v -1.000000 1.500000 0.100000
v -0.700000 2.900001 0.100000
v 0.500000 3.300001 0.100001
v -0.500000 4.100001 0.100001
v -0.500000 3.300001 0.100001
v 0.500000 4.100001 0.100001
v 1.000000 1.500000 0.100000
v 0.700000 2.900001 0.100000
v 0.700000 1.500000 0.100000
v 1.000000 2.900001 0.100000
v -0.500000 0.000000 -0.200000
v -0.500000 1.000000 -0.200000
v -0.200000 0.000000 -0.200000
v -0.200000 1.000000 -0.200000
v 0.200000 0.000000 -0.200000
v 0.200000 1.000000 -0.200000
v 0.500000 0.000000 -0.200000
v 0.500000 1.000000 -0.200000
v -1.000000 1.500000 -0.300000
v -1.000000 2.900001 -0.300000
v -0.700000 1.500000 -0.300000
v -0.700000 2.900001 -0.300000
v 0.700000 1.500000 -0.300000
v 0.700000 2.900001 -0.300000
v 1.000000 1.500000 -0.300000
v 1.000000 2.900001 -0.300000
v -0.700000 1.000000 -0.500000
v -0.700000 3.300001 -0.500000
v -0.600000 2.500000 -0.500000
v -0.600000 2.900001 -0.500000
v -0.500000 2.600001 -0.500000
v -0.500000 2.800001 -0.500000
v -0.500000 3.300001 -0.500000
v -0.200000 2.600001 -0.500000
v -0.200000 2.800001 -0.500000
v -0.100000 1.300000 -0.500000
v -0.100000 1.400000 -0.500000
v -0.100000 1.900001 -0.500000
v -0.100000 2.000000 -0.500000
v -0.100000 2.400001 -0.500000
v -0.100000 2.500000 -0.500000
v -0.100000 2.900001 -0.500000
v -0.100000 3.000001 -0.500000
v 0.100000 1.300000 -0.500000
v 0.100000 1.400000 -0.500000
v 0.100000 1.900001 -0.500000
v 0.100000 2.000000 -0.500000
v 0.100000 2.400001 -0.500000
v 0.100000 2.500000 -0.500000
v 0.100000 2.900001 -0.500000
v 0.100000 3.000001 -0.500000
v 0.500000 3.300001 -0.500000
v 0.700000 1.000000 -0.500000
v 0.700000 3.300001 -0.500000
v -0.500000 3.300001 -0.800000
v -0.500000 4.100001 -0.800000
v -0.300000 3.500001 -0.800000
v -0.300000 3.600001 -0.800000
v -0.300000 3.800001 -0.800000
v -0.300000 3.900001 -0.800000
v -0.200000 3.800001 -0.800000
v -0.200000 3.900001 -0.800000
v 0.200000 3.800001 -0.800000
v 0.200000 3.900001 -0.800000
v 0.300000 3.500001 -0.800000
v 0.300000 3.600001 -0.800000
v 0.300000 3.800001 -0.800000
v 0.300000 3.900001 -0.800000
v 0.500000 3.300001 -0.800000
v 0.500000 4.100001 -0.800000
v -0.500000 0.000000 -0.200000
v -0.200000 -0.000000 0.200000
v -0.500000 -0.000000 0.200000
v -0.200000 0.000000 -0.200000
v 0.200000 0.000000 -0.200000
v 0.500000 -0.000000 0.200000
v 0.200000 -0.000000 0.200000
v 0.500000 0.000000 -0.200000
v -0.500000 1.000000 0.200000
v 0.700000 1.000000 0.500000
v -0.700000 1.000000 0.500000
v -0.200000 1.000000 0.200000
v 0.200000 1.000000 0.200000
v 0.500000 1.000000 0.200000
v -0.500000 1.000000 -0.200000
v -0.200000 1.000000 -0.200000
v 0.200000 1.000000 -0.200000
v 0.500000 1.000000 -0.200000
v -0.700000 1.000000 -0.500000
v 0.700000 1.000000 -0.500000
v -1.000000 1.500000 -0.300000
v -0.700000 1.500000 0.100000
v -1.000000 1.500000 0.100000
v -0.700000 1.500000 -0.300000
v 0.700000 1.500000 -0.300000
v 1.000000 1.500000 0.100000
v 0.700000 1.500000 0.100000
v 1.000000 1.500000 -0.300000
v -0.500000 3.300001 -0.800000
v 0.500000 3.300001 -0.500000
v -0.500000 3.300001 -0.500000
v 0.500000 3.300001 -0.800000
v -1.000000 2.900001 0.100000
v -0.700000 2.900001 0.100000
v -1.000000 2.900001 -0.300000
v -0.700000 2.900001 -0.300000
v 0.700000 2.900001 0.100000
v 1.000000 2.900001 0.100000
v 0.700000 2.900001 -0.300000
v 1.000000 2.900001 -0.300000
v -0.700000 3.300001 0.500001
v 0.700000 3.300001 0.500001
v -0.500000 3.300001 0.100001
v 0.500000 3.300001 0.100001
v -0.700000 3.300001 -0.500000
v -0.500000 3.300001 -0.500000
v 0.500000 3.300001 -0.500000
v 0.700000 3.300001 -0.500000
v -0.500000 4.100001 0.100001
v 0.500000 4.100001 0.100001
v -0.500000 4.100001 -0.800000
v 0.500000 4.100001 -0.800000
vt 0.970703 0.500000
vt 0.974609 0.500000
vt 0.982422 0.500000
vt 0.986328 0.500000
vt 0.978516 0.500000
vn -1.000000 0.000000 0.000000
vn 1.000000 0.000000 0.000000
vn 0.000000 -0.000000 1.000000
vn 0.000000 0.000000 -1.000000
vn 0.000000 -1.000000 -0.000000
vn 0.000000 1.000000 0.000000
usemtl palette
s 1
f 1/1/1 2/1/1 3/1/1
f 4/1/1 2/1/1 1/1/1
f 5/2/1 6/2/1 7/2/1
f 8/2/1 6/2/1 5/2/1
f 9/2/1 5/2/1 7/2/1
f 10/2/1 6/2/1 8/2/1
f 11/2/1 9/2/1 7/2/1
f 11/2/1 10/2/1 9/2/1
f 12/2/1 6/2/1 10/2/1
f 12/2/1 10/2/1 11/2/1
f 13/1/1 14/1/1 15/1/1
f 16/1/1 14/1/1 13/1/1
f 17/1/1 18/1/1 19/1/1
f 17/1/1 20/1/1 18/1/1
f 21/1/1 20/1/1 17/1/1
f 22/1/1 23/1/1 24/1/1
f 25/1/1 23/1/1 22/1/1
f 26/1/2 27/1/2 28/1/2
f 28/1/2 27/1/2 29/1/2
f 30/1/2 31/1/2 32/1/2
f 32/1/2 31/1/2 33/1/2
f 34/1/2 35/1/2 36/1/2
f 35/1/2 37/1/2 36/1/2
f 36/1/2 37/1/2 38/1/2
f 39/2/2 40/2/2 41/2/2
f 41/2/2 40/2/2 42/2/2
f 39/2/2 41/2/2 43/2/2
f 42/2/2 40/2/2 44/2/2
f 39/2/2 43/2/2 45/2/2
f 43/2/2 44/2/2 45/2/2
f 44/2/2 40/2/2 46/2/2
f 45/2/2 44/2/2 46/2/2
f 47/1/2 48/1/2 49/1/2
f 49/1/2 48/1/2 50/1/2
f 51/2/3 52/2/3 53/2/3
f 54/2/3 52/2/3 51/2/3
f 55/1/3 56/1/3 57/1/3
f 58/1/3 56/1/3 55/1/3
f 59/1/3 60/1/3 61/1/3
f 62/1/3 60/1/3 59/1/3
f 63/1/3 64/1/3 65/1/3
f 66/1/3 64/1/3 63/1/3
f 67/1/3 68/1/3 69/1/3
f 70/1/3 68/1/3 67/1/3
f 71/1/3 72/1/3 73/1/3
f 74/1/3 72/1/3 71/1/3
f 75/1/4 76/1/4 77/1/4
f 77/1/4 76/1/4 78/1/4
f 79/1/4 80/1/4 81/1/4
f 81/1/4 80/1/4 82/1/4
f 83/1/4 84/1/4 85/1/4
f 85/1/4 84/1/4 86/1/4
f 87/1/4 88/1/4 89/1/4
f 89/1/4 88/1/4 90/1/4
f 91/2/4 92/2/4 93/2/4
f 93/2/4 92/2/4 94/2/4
f 93/3/4 94/3/4 95/3/4
f 95/3/4 94/3/4 96/3/4
f 94/2/4 92/2/4 97/2/4
f 93/3/4 95/3/4 98/3/4
f 95/2/4 96/2/4 98/2/4
f 96/3/4 94/3/4 99/3/4
f 98/2/4 96/2/4 99/2/4
f 91/2/4 93/2/4 100/2/4
f 100/2/4 93/2/4 101/2/4
f 101/2/4 93/2/4 102/2/4
f 102/2/4 93/2/4 103/2/4
f 103/2/4 93/2/4 104/2/4
f 93/3/4 98/3/4 105/3/4
f 104/2/4 93/2/4 105/2/4
f 98/3/4 99/3/4 105/3/4
f 99/3/4 94/3/4 106/3/4
f 105/3/4 99/3/4 106/3/4
f 94/2/4 97/2/4 106/2/4
f 106/2/4 97/2/4 107/2/4
f 91/2/4 100/2/4 108/2/4
f 100/4/4 101/4/4 108/4/4
f 101/2/4 102/2/4 109/2/4
f 108/4/4 101/4/4 109/4/4
f 102/4/4 103/4/4 110/4/4
f 109/2/4 102/2/4 110/2/4
f 103/2/4 104/2/4 111/2/4
f 110/4/4 103/4/4 111/4/4
f 104/4/4 105/4/4 112/4/4
f 111/2/4 104/2/4 112/2/4
f 105/2/4 106/2/4 113/2/4
f 112/4/4 105/4/4 113/4/4
f 106/4/4 107/4/4 114/4/4
f 113/2/4 106/2/4 114/2/4
f 107/2/4 97/2/4 115/2/4
f 114/4/4 107/4/4 115/4/4
f 110/2/4 111/2/4 116/2/4
f 115/2/4 97/2/4 116/2/4
f 114/2/4 115/2/4 116/2/4
f 111/2/4 112/2/4 116/2/4
f 112/2/4 113/2/4 116/2/4
f 113/2/4 114/2/4 116/2/4
f 108/2/4 109/2/4 116/2/4
f 109/2/4 110/2/4 116/2/4
f 91/2/4 108/2/4 117/2/4
f 108/2/4 116/2/4 117/2/4
f 117/2/4 116/2/4 118/2/4
f 119/1/4 120/1/4 121/1/4
f 121/1/4 120/1/4 122/1/4
f 122/1/4 120/1/4 123/1/4
f 123/1/4 120/1/4 124/1/4
f 122/1/4 123/1/4 125/1/4
f 123/5/4 124/5/4 125/5/4
f 124/1/4 120/1/4 126/1/4
f 125/5/4 124/5/4 126/5/4
f 122/1/4 125/1/4 127/1/4
f 125/1/4 126/1/4 127/1/4
f 126/1/4 120/1/4 128/1/4
f 127/1/4 126/1/4 128/1/4
f 119/1/4 121/1/4 129/1/4
f 121/2/4 122/2/4 129/2/4
f 122/1/4 127/1/4 130/1/4
f 129/2/4 122/2/4 130/2/4
f 127/5/4 128/5/4 131/5/4
f 130/1/4 127/1/4 131/1/4
f 128/1/4 120/1/4 132/1/4
f 131/5/4 128/5/4 132/5/4
f 130/1/4 131/1/4 133/1/4
f 129/1/4 130/1/4 133/1/4
f 131/1/4 132/1/4 133/1/4
f 119/1/4 129/1/4 133/1/4
f 132/1/4 120/1/4 134/1/4
f 133/1/4 132/1/4 134/1/4
f 135/1/5 136/1/5 137/1/5
f 138/1/5 136/1/5 135/1/5
f 139/1/5 140/1/5 141/1/5
f 142/1/5 140/1/5 139/1/5
f 143/2/5 144/2/5 145/2/5
f 146/2/5 144/2/5 143/2/5
f 147/2/5 144/2/5 146/2/5
f 148/2/5 144/2/5 147/2/5
f 149/2/5 143/2/5 145/2/5
f 150/2/5 147/2/5 146/2/5
f 151/2/5 147/2/5 150/2/5
f 152/2/5 144/2/5 148/2/5
f 153/2/5 151/2/5 150/2/5
f 153/2/5 152/2/5 151/2/5
f 153/2/5 149/2/5 145/2/5
f 153/2/5 150/2/5 149/2/5
f 154/2/5 144/2/5 152/2/5
f 154/2/5 152/2/5 153/2/5
f 155/1/5 156/1/5 157/1/5
f 158/1/5 156/1/5 155/1/5
f 159/1/5 160/1/5 161/1/5
f 162/1/5 160/1/5 159/1/5
f 163/1/5 164/1/5 165/1/5
f 166/1/5 164/1/5 163/1/5
f 167/1/6 168/1/6 169/1/6
f 169/1/6 168/1/6 170/1/6
f 171/1/6 172/1/6 173/1/6
f 173/1/6 172/1/6 174/1/6
f 175/2/6 176/2/6 177/2/6
f 177/2/6 176/2/6 178/2/6
f 175/2/6 177/2/6 179/2/6
f 179/2/6 177/2/6 180/2/6
f 178/2/6 176/2/6 181/2/6
f 181/2/6 176/2/6 182/2/6
f 183/1/6 184/1/6 185/1/6
f 185/1/6 184/1/6 186/1/6
